name C:\Users\u0101727\Documents\MyRepositories\upper-imu-dc\OpenSim\subject0\MA\ResultsMA\grid_4nodes_9dim\angles_13.mot
datacolumns 10
datarows 23
range 1350.01000000 1350.23000000
endheader 
time	clav_prot	clav_elev	scapula_abduction	scapula_elevation	scapula_upward_rot	scapula_winging	plane_elv	shoulder_elv	axial_rot	
       1350.01000000	        -50.00000000	         10.00000000	        -21.66666667	         -3.33333333	         90.00000000	         10.00000000	        -90.00000000	        -10.00000000	         30.00000000	
       1350.02000000	        -38.33333333	         10.00000000	        -21.66666667	         -3.33333333	         90.00000000	         10.00000000	        -90.00000000	        -10.00000000	         30.00000000	
       1350.03000000	        -26.66666667	         10.00000000	        -21.66666667	         -3.33333333	         90.00000000	         10.00000000	        -90.00000000	        -10.00000000	         30.00000000	
       1350.04000000	        -15.00000000	         10.00000000	        -21.66666667	         -3.33333333	         90.00000000	         10.00000000	        -90.00000000	        -10.00000000	         30.00000000	
       1350.05000000	        -50.00000000	         20.00000000	        -21.66666667	         -3.33333333	         90.00000000	         10.00000000	        -90.00000000	        -10.00000000	         30.00000000	
       1350.06000000	        -38.33333333	         20.00000000	        -21.66666667	         -3.33333333	         90.00000000	         10.00000000	        -90.00000000	        -10.00000000	         30.00000000	
       1350.07000000	        -26.66666667	         20.00000000	        -21.66666667	         -3.33333333	         90.00000000	         10.00000000	        -90.00000000	        -10.00000000	         30.00000000	
       1350.08000000	        -15.00000000	         20.00000000	        -21.66666667	         -3.33333333	         90.00000000	         10.00000000	        -90.00000000	        -10.00000000	         30.00000000	
       1350.09000000	        -50.00000000	        -10.00000000	         -3.33333333	         -3.33333333	         90.00000000	         10.00000000	        -90.00000000	        -10.00000000	         30.00000000	
       1350.10000000	        -38.33333333	        -10.00000000	         -3.33333333	         -3.33333333	         90.00000000	         10.00000000	        -90.00000000	        -10.00000000	         30.00000000	
       1350.11000000	        -26.66666667	        -10.00000000	         -3.33333333	         -3.33333333	         90.00000000	         10.00000000	        -90.00000000	        -10.00000000	         30.00000000	
       1350.12000000	        -15.00000000	        -10.00000000	         -3.33333333	         -3.33333333	         90.00000000	         10.00000000	        -90.00000000	        -10.00000000	         30.00000000	
       1350.13000000	        -50.00000000	          0.00000000	         -3.33333333	         -3.33333333	         90.00000000	         10.00000000	        -90.00000000	        -10.00000000	         30.00000000	
       1350.14000000	        -38.33333333	          0.00000000	         -3.33333333	         -3.33333333	         90.00000000	         10.00000000	        -90.00000000	        -10.00000000	         30.00000000	
       1350.15000000	        -26.66666667	          0.00000000	         -3.33333333	         -3.33333333	         90.00000000	         10.00000000	        -90.00000000	        -10.00000000	         30.00000000	
       1350.16000000	        -15.00000000	          0.00000000	         -3.33333333	         -3.33333333	         90.00000000	         10.00000000	        -90.00000000	        -10.00000000	         30.00000000	
       1350.17000000	        -50.00000000	         10.00000000	         -3.33333333	         -3.33333333	         90.00000000	         10.00000000	        -90.00000000	        -10.00000000	         30.00000000	
       1350.18000000	        -38.33333333	         10.00000000	         -3.33333333	         -3.33333333	         90.00000000	         10.00000000	        -90.00000000	        -10.00000000	         30.00000000	
       1350.19000000	        -26.66666667	         10.00000000	         -3.33333333	         -3.33333333	         90.00000000	         10.00000000	        -90.00000000	        -10.00000000	         30.00000000	
       1350.20000000	        -15.00000000	         10.00000000	         -3.33333333	         -3.33333333	         90.00000000	         10.00000000	        -90.00000000	        -10.00000000	         30.00000000	
       1350.21000000	        -50.00000000	         20.00000000	         -3.33333333	         -3.33333333	         90.00000000	         10.00000000	        -90.00000000	        -10.00000000	         30.00000000	
       1350.22000000	        -38.33333333	         20.00000000	         -3.33333333	         -3.33333333	         90.00000000	         10.00000000	        -90.00000000	        -10.00000000	         30.00000000	
       1350.23000000	        -26.66666667	         20.00000000	         -3.33333333	         -3.33333333	         90.00000000	         10.00000000	        -90.00000000	        -10.00000000	         30.00000000	
